<?xml version="1.0" standalone="no"?>
<!DOCTYPE svg PUBLIC "-//W3C//DTD SVG 20010904//EN"
 "http://www.w3.org/TR/2001/REC-SVG-20010904/DTD/svg10.dtd">
<svg version="1.0" xmlns="http://www.w3.org/2000/svg"
 width="439.000000pt" height="439.000000pt" viewBox="0 0 439.000000 439.000000"
 preserveAspectRatio="xMidYMid meet">
<metadata>
Created by potrace 1.11, written by Peter Selinger 2001-2013
</metadata>
<g transform="translate(0.000000,439.000000) scale(0.100000,-0.100000)"
fill="#000000" stroke="none">
<path d="M1995 4103 c-114 -10 -340 -67 -476 -118 -371 -142 -696 -408 -913
-748 -194 -304 -312 -740 -292 -1082 27 -487 220 -926 552 -1258 320 -320 727
-506 1196 -549 360 -32 774 68 1113 270 113 67 281 200 371 294 257 269 423
587 501 957 24 115 27 147 27 356 1 248 -4 289 -65 505 -149 537 -507 962
-1014 1205 -151 72 -400 143 -575 165 -79 9 -333 11 -425 3z m-213 -423 c12 0
78 -61 91 -84 9 -15 13 -142 17 -459 l5 -438 64 47 c141 102 285 144 501 144
151 0 224 -14 325 -59 137 -62 281 -203 345 -336 74 -153 72 -135 71 -839 -2
-673 -1 -655 -53 -703 -58 -55 -27 -53 -950 -53 -544 0 -866 4 -889 10 -54 15
-116 86 -124 141 -3 24 -5 602 -3 1285 l3 1241 29 37 c54 71 55 71 322 69 131
-1 242 -2 246 -3z"/>
<path d="M2089 2322 c-110 -37 -199 -118 -253 -231 -29 -62 -31 -73 -31 -176
0 -135 -9 -112 240 -601 l187 -366 42 99 c23 55 112 236 198 404 85 167 161
328 168 358 20 85 8 202 -29 284 -40 89 -118 167 -208 210 -59 27 -81 32 -163
34 -71 2 -109 -2 -151 -15z m282 -114 c62 -37 124 -104 151 -163 33 -72 32
-198 -1 -273 -34 -75 -125 -157 -198 -178 -148 -43 -308 35 -376 184 -31 67
-31 198 0 264 41 89 107 153 190 184 61 23 180 13 234 -18z"/>
</g>
</svg>
